<?xml version="1.0" standalone="no"?>
<!DOCTYPE svg PUBLIC "-//W3C//DTD SVG 20010904//EN"
 "http://www.w3.org/TR/2001/REC-SVG-20010904/DTD/svg10.dtd">
<svg version="1.0" xmlns="http://www.w3.org/2000/svg"
 width="284.000000pt" height="282.000000pt" viewBox="0 0 284.000000 282.000000"
 preserveAspectRatio="xMidYMid meet">

<g transform="translate(0.000000,282.000000) scale(0.100000,-0.100000)"
fill="#000000" stroke="none">
<path d="M1295 2794 c-249 -24 -505 -120 -690 -256 -95 -71 -249 -226 -319
-323 -190 -263 -278 -596 -247 -933 36 -390 233 -739 551 -978 156 -118 391
-217 600 -255 119 -21 364 -17 487 10 563 119 975 531 1094 1094 26 122 31
367 10 487 -79 444 -358 819 -759 1019 -96 48 -269 106 -362 121 -72 11 -302
20 -365 14z m297 -643 c137 -35 250 -103 349 -209 73 -78 132 -173 154 -248
12 -41 22 -56 50 -73 48 -28 65 -73 65 -166 0 -90 -18 -139 -59 -163 -24 -13
-35 -31 -52 -82 -11 -36 -36 -92 -55 -125 -39 -70 -137 -182 -197 -224 -68
-49 -200 -110 -263 -123 -43 -8 -70 -21 -98 -46 -34 -30 -43 -34 -80 -29 -53
7 -96 52 -96 102 0 85 105 131 167 73 l28 -26 73 19 c174 44 329 172 408 335
46 95 52 129 28 155 -16 18 -19 38 -19 139 0 102 3 121 19 139 19 21 19 22 -8
87 -74 181 -215 310 -411 375 -106 35 -262 34 -369 -3 -129 -45 -238 -117
-311 -208 -30 -37 -102 -173 -109 -208 -5 -21 -1 -39 13 -63 17 -28 21 -51 21
-125 0 -78 -3 -96 -23 -125 -43 -65 -131 -65 -174 0 -20 29 -23 47 -23 121 0
109 12 145 59 174 29 18 40 35 54 77 64 205 281 399 504 453 88 22 265 20 355
-3z m-103 -301 c118 -22 245 -121 302 -236 21 -44 24 -62 24 -169 0 -108 -3
-125 -25 -170 -14 -27 -56 -82 -95 -121 -63 -64 -78 -74 -150 -97 -92 -31
-137 -33 -220 -11 -62 16 -74 16 -215 -10 -136 -25 -141 -18 -109 144 20 102
21 118 9 195 -10 67 -11 96 -1 146 45 227 256 372 480 329z"/>
<path d="M1212 1478 c-28 -28 -7 -78 33 -78 29 0 45 19 45 51 0 37 -51 54 -78
27z"/>
<path d="M1375 1470 c-17 -18 -17 -21 -1 -45 27 -42 86 -28 86 20 0 45 -53 61
-85 25z"/>
<path d="M1553 1483 c-16 -6 -17 -55 -1 -71 7 -7 21 -12 33 -12 12 0 26 5 33
12 7 7 12 21 12 33 0 37 -36 55 -77 38z"/>
</g>
</svg>
